# xmcd
#
# Track frame offsets:
#  150
#  28368
#  49968
#  83828
#  97358
#  108545
#  142257
#  168064
#  180480
#  213562
#  234045
#  261497
#  286874
#
# Disc length: 4160 seconds
#
# Revision: 1
# Processed by: cddbd v1.5.1PL0 Copyright (c) Steve Scherf et al.
# Submitted via: AltoMP3_Maker 3.0
#
DISCID=c1103e0d
DTITLE=Various Artist - The BLUES You Would Just Hate to LOSE, Vol. II
DYEAR=1900
DGENRE=
TTITLE0=My Be Bop Gal
TTITLE1=Tore Up
TTITLE2=Wabash Blues
TTITLE3=Blues In The Dark
TTITLE4=You Don't Know What Love Is
TTITLE5=Shake Your Hips
TTITLE6=Sky Is Crying
TTITLE7=Okie DOkie Stomp
TTITLE8=Last Night
TTITLE9=Slinky
TTITLE10=Left Overs
TTITLE11=Blow Top Blues
TTITLE12=Flip Flop and Fly
EXTD=
EXTT0=
EXTT1=
EXTT2=
EXTT3=
EXTT4=
EXTT5=
EXTT6=
EXTT7=
EXTT8=
EXTT9=
EXTT10=
EXTT11=
EXTT12=
PLAYORDER=
